<?xml version="1.0" encoding="UTF-8" standalone="no"?>
<!DOCTYPE svg PUBLIC "-//W3C//DTD SVG 1.1//EN"
 "http://www.w3.org/Graphics/SVG/1.1/DTD/svg11.dtd">
<!-- Generated by graphviz version 2.40.1 (20161225.0304)
 -->
<!-- Title: G Pages: 1 -->
<svg width="122pt" height="288pt"
 viewBox="0.00 0.00 122.44 288.00" xmlns="http://www.w3.org/2000/svg" xmlns:xlink="http://www.w3.org/1999/xlink">
<g id="graph0" class="graph" transform="scale(.3401 .3401) rotate(0) translate(4 842.7738)">
<title>G</title>
<polygon fill="#ffffff" stroke="transparent" points="-4,4 -4,-842.7738 356,-842.7738 356,4 -4,4"/>
<!-- 0 -->
<g id="node1" class="node">
<title>0</title>
<ellipse fill="none" stroke="#000000" cx="258" cy="-820.7738" rx="18" ry="18"/>
<text text-anchor="middle" x="258" y="-816.5738" font-family="Times,serif" font-size="14.00" fill="#000000">0</text>
</g>
<!-- 1 -->
<g id="node2" class="node">
<title>1</title>
<ellipse fill="none" stroke="#000000" cx="258" cy="-748.7738" rx="18" ry="18"/>
<text text-anchor="middle" x="258" y="-744.5738" font-family="Times,serif" font-size="14.00" fill="#000000">1</text>
</g>
<!-- 0&#45;&#45;1 -->
<g id="edge1" class="edge">
<title>0&#45;&#45;1</title>
<path fill="none" stroke="#000000" d="M252.1601,-803.7108C250.96,-792.3998 250.9468,-777.602 252.1206,-766.2145"/>
</g>
<!-- 3 -->
<g id="node3" class="node">
<title>3</title>
<ellipse fill="none" stroke="#000000" cx="288" cy="-316.7738" rx="18" ry="18"/>
<text text-anchor="middle" x="288" y="-312.5738" font-family="Times,serif" font-size="14.00" fill="#000000">3</text>
</g>
<!-- 0&#45;&#45;3 -->
<g id="edge2" class="edge">
<title>0&#45;&#45;3</title>
<path fill="none" stroke="#000000" d="M268.7306,-805.685C290.0889,-781.211 334,-730.1899 334,-676.7738 334,-676.7738 334,-676.7738 334,-460.7738 334,-412.3356 306.5059,-360.4074 293.577,-334.1382"/>
</g>
<!-- 10 -->
<g id="node4" class="node">
<title>10</title>
<ellipse fill="none" stroke="#000000" cx="94" cy="-20.6935" rx="20.8887" ry="20.8887"/>
<text text-anchor="middle" x="94" y="-16.4935" font-family="Times,serif" font-size="14.00" fill="#000000">10</text>
</g>
<!-- 0&#45;&#45;10 -->
<g id="edge3" class="edge">
<title>0&#45;&#45;10</title>
<path fill="none" stroke="#000000" d="M239.7273,-819.3932C180.5645,-813.5156 0,-785.6377 0,-676.7738 0,-676.7738 0,-676.7738 0,-172.7738 0,-113.7923 49.3183,-56.4261 76.7992,-32.4363"/>
</g>
<!-- 1&#45;&#45;0 -->
<g id="edge4" class="edge">
<title>1&#45;&#45;0</title>
<path fill="none" stroke="#000000" d="M263.8794,-766.2145C265.0532,-777.602 265.04,-792.3998 263.8399,-803.7108"/>
</g>
<!-- 2 -->
<g id="node5" class="node">
<title>2</title>
<ellipse fill="none" stroke="#000000" cx="288" cy="-388.7738" rx="18" ry="18"/>
<text text-anchor="middle" x="288" y="-384.5738" font-family="Times,serif" font-size="14.00" fill="#000000">2</text>
</g>
<!-- 1&#45;&#45;2 -->
<g id="edge5" class="edge">
<title>1&#45;&#45;2</title>
<path fill="none" stroke="#000000" d="M258.2787,-730.3722C263.6628,-703.2204 278,-650.6773 278,-604.7738 278,-604.7738 278,-604.7738 278,-532.7738 278,-487.0227 278.511,-433.0972 282.09,-406.0629"/>
</g>
<!-- 9 -->
<g id="node6" class="node">
<title>9</title>
<ellipse fill="none" stroke="#000000" cx="203" cy="-676.7738" rx="18" ry="18"/>
<text text-anchor="middle" x="203" y="-672.5738" font-family="Times,serif" font-size="14.00" fill="#000000">9</text>
</g>
<!-- 1&#45;&#45;9 -->
<g id="edge6" class="edge">
<title>1&#45;&#45;9</title>
<path fill="none" stroke="#000000" d="M244.0485,-737.2058C233.0759,-725.3598 218.6958,-706.8314 209.9157,-693.4122"/>
</g>
<!-- 3&#45;&#45;0 -->
<g id="edge11" class="edge">
<title>3&#45;&#45;0</title>
<path fill="none" stroke="#000000" d="M301.4968,-329.2603C320.7394,-353.5066 352,-409.1242 352,-460.7738 352,-676.7738 352,-676.7738 352,-676.7738 352,-734.5444 300.6376,-789.5137 273.5378,-811.1282"/>
</g>
<!-- 3&#45;&#45;2 -->
<g id="edge10" class="edge">
<title>3&#45;&#45;2</title>
<path fill="none" stroke="#000000" d="M293.8794,-334.2145C295.0532,-345.602 295.04,-360.3998 293.8399,-371.7108"/>
</g>
<!-- 7 -->
<g id="node8" class="node">
<title>7</title>
<ellipse fill="none" stroke="#000000" cx="232" cy="-244.7738" rx="18" ry="18"/>
<text text-anchor="middle" x="232" y="-240.5738" font-family="Times,serif" font-size="14.00" fill="#000000">7</text>
</g>
<!-- 3&#45;&#45;7 -->
<g id="edge12" class="edge">
<title>3&#45;&#45;7</title>
<path fill="none" stroke="#000000" d="M273.8878,-305.2058C262.7507,-293.3598 248.1132,-274.8314 239.1468,-261.4122"/>
</g>
<!-- 10&#45;&#45;0 -->
<g id="edge37" class="edge">
<title>10&#45;&#45;0</title>
<path fill="none" stroke="#000000" d="M82.207,-38.1077C60.4909,-64.6716 18,-118.0268 18,-172.7738 18,-676.7738 18,-676.7738 18,-676.7738 18,-781.1433 183.9633,-811.0758 240.0056,-818.5486"/>
</g>
<!-- 10&#45;&#45;9 -->
<g id="edge34" class="edge">
<title>10&#45;&#45;9</title>
<path fill="none" stroke="#000000" d="M93.4448,-41.6111C87.8632,-70.7102 74,-125.1987 74,-172.7738 74,-532.7738 74,-532.7738 74,-532.7738 74,-599.7763 152.8426,-647.7604 187.4534,-667.1965"/>
</g>
<!-- 10&#45;&#45;7 -->
<g id="edge35" class="edge">
<title>10&#45;&#45;7</title>
<path fill="none" stroke="#000000" d="M112.5149,-30.6564C127.3199,-41.4707 147.1894,-59.588 162,-77.3869 188.3472,-109.0502 195.3746,-117.5437 213,-154.7738 224.343,-178.7337 232.5427,-208.41 234.7543,-226.9731"/>
</g>
<!-- 11 -->
<g id="node10" class="node">
<title>11</title>
<ellipse fill="none" stroke="#000000" cx="123" cy="-98.0804" rx="20.8887" ry="20.8887"/>
<text text-anchor="middle" x="123" y="-93.8804" font-family="Times,serif" font-size="14.00" fill="#000000">11</text>
</g>
<!-- 10&#45;&#45;11 -->
<g id="edge36" class="edge">
<title>10&#45;&#45;11</title>
<path fill="none" stroke="#000000" d="M106.0151,-37.5762C111.6745,-49.2644 117.6551,-64.8956 121.286,-77.3421"/>
</g>
<!-- 2&#45;&#45;1 -->
<g id="edge8" class="edge">
<title>2&#45;&#45;1</title>
<path fill="none" stroke="#000000" d="M293.5149,-406.0629C296.511,-433.0972 296,-487.0227 296,-532.7738 296,-604.7738 296,-604.7738 296,-604.7738 296,-652.7174 280.3601,-707.904 268.4869,-733.8391"/>
</g>
<!-- 2&#45;&#45;3 -->
<g id="edge7" class="edge">
<title>2&#45;&#45;3</title>
<path fill="none" stroke="#000000" d="M282.1601,-371.7108C280.96,-360.3998 280.9468,-345.602 282.1206,-334.2145"/>
</g>
<!-- 8 -->
<g id="node7" class="node">
<title>8</title>
<ellipse fill="none" stroke="#000000" cx="232" cy="-460.7738" rx="18" ry="18"/>
<text text-anchor="middle" x="232" y="-456.5738" font-family="Times,serif" font-size="14.00" fill="#000000">8</text>
</g>
<!-- 2&#45;&#45;8 -->
<g id="edge9" class="edge">
<title>2&#45;&#45;8</title>
<path fill="none" stroke="#000000" d="M280.8532,-405.4122C271.8868,-418.8314 257.2493,-437.3598 246.1122,-449.2058"/>
</g>
<!-- 9&#45;&#45;1 -->
<g id="edge33" class="edge">
<title>9&#45;&#45;1</title>
<path fill="none" stroke="#000000" d="M217.2485,-688.6631C228.1657,-700.5026 242.3399,-718.7811 251.0444,-732.0746"/>
</g>
<!-- 9&#45;&#45;10 -->
<g id="edge30" class="edge">
<title>9&#45;&#45;10</title>
<path fill="none" stroke="#000000" d="M185.81,-670.9633C146.6641,-654.6043 56,-604.624 56,-532.7738 56,-532.7738 56,-532.7738 56,-172.7738 56,-123.3172 70.9814,-66.3895 82.7503,-38.2798"/>
</g>
<!-- 9&#45;&#45;8 -->
<g id="edge31" class="edge">
<title>9&#45;&#45;8</title>
<path fill="none" stroke="#000000" d="M201.4767,-658.7293C203.217,-617.665 216.6722,-517.7038 225.8829,-477.7166"/>
</g>
<!-- 4 -->
<g id="node9" class="node">
<title>4</title>
<ellipse fill="none" stroke="#000000" cx="176" cy="-604.7738" rx="18" ry="18"/>
<text text-anchor="middle" x="176" y="-600.5738" font-family="Times,serif" font-size="14.00" fill="#000000">4</text>
</g>
<!-- 9&#45;&#45;4 -->
<g id="edge32" class="edge">
<title>9&#45;&#45;4</title>
<path fill="none" stroke="#000000" d="M191.9875,-662.2035C186.2795,-650.8624 180.2203,-635.06 176.8496,-622.9018"/>
</g>
<!-- 8&#45;&#45;2 -->
<g id="edge29" class="edge">
<title>8&#45;&#45;2</title>
<path fill="none" stroke="#000000" d="M239.1875,-444.0746C248.1878,-430.615 262.8663,-412.0449 274.0004,-400.2222"/>
</g>
<!-- 8&#45;&#45;9 -->
<g id="edge27" class="edge">
<title>8&#45;&#45;9</title>
<path fill="none" stroke="#000000" d="M233.5218,-478.853C231.7755,-519.9367 218.3266,-619.8445 209.1186,-659.8247"/>
</g>
<!-- 8&#45;&#45;7 -->
<g id="edge26" class="edge">
<title>8&#45;&#45;7</title>
<path fill="none" stroke="#000000" d="M228.0882,-443.0976C224.3021,-402.4929 224.3039,-302.9391 228.0937,-262.3913"/>
</g>
<!-- 5 -->
<g id="node11" class="node">
<title>5</title>
<ellipse fill="none" stroke="#000000" cx="176" cy="-532.7738" rx="18" ry="18"/>
<text text-anchor="middle" x="176" y="-528.5738" font-family="Times,serif" font-size="14.00" fill="#000000">5</text>
</g>
<!-- 8&#45;&#45;5 -->
<g id="edge28" class="edge">
<title>8&#45;&#45;5</title>
<path fill="none" stroke="#000000" d="M224.8532,-477.4122C215.8868,-490.8314 201.2493,-509.3598 190.1122,-521.2058"/>
</g>
<!-- 7&#45;&#45;3 -->
<g id="edge25" class="edge">
<title>7&#45;&#45;3</title>
<path fill="none" stroke="#000000" d="M245.9996,-256.2222C257.1337,-268.0449 271.8122,-286.615 280.8125,-300.0746"/>
</g>
<!-- 7&#45;&#45;10 -->
<g id="edge23" class="edge">
<title>7&#45;&#45;10</title>
<path fill="none" stroke="#000000" d="M222.1858,-229.3158C215.2454,-210.9853 206.8332,-179.769 195,-154.7738 177.3746,-117.5437 170.3472,-109.0502 144,-77.3869 132.1879,-63.1914 117.1579,-48.7935 106.4028,-38.0594"/>
</g>
<!-- 7&#45;&#45;8 -->
<g id="edge22" class="edge">
<title>7&#45;&#45;8</title>
<path fill="none" stroke="#000000" d="M235.9063,-262.3913C239.6961,-302.9391 239.6979,-402.4929 235.9118,-443.0976"/>
</g>
<!-- 6 -->
<g id="node12" class="node">
<title>6</title>
<ellipse fill="none" stroke="#000000" cx="177" cy="-172.7738" rx="18" ry="18"/>
<text text-anchor="middle" x="177" y="-168.5738" font-family="Times,serif" font-size="14.00" fill="#000000">6</text>
</g>
<!-- 7&#45;&#45;6 -->
<g id="edge24" class="edge">
<title>7&#45;&#45;6</title>
<path fill="none" stroke="#000000" d="M218.0485,-233.2058C207.0759,-221.3598 192.6958,-202.8314 183.9157,-189.4122"/>
</g>
<!-- 4&#45;&#45;9 -->
<g id="edge13" class="edge">
<title>4&#45;&#45;9</title>
<path fill="none" stroke="#000000" d="M186.9961,-619.3116C192.7026,-630.6424 198.763,-646.4407 202.1392,-658.6052"/>
</g>
<!-- 4&#45;&#45;11 -->
<g id="edge14" class="edge">
<title>4&#45;&#45;11</title>
<path fill="none" stroke="#000000" d="M162.5032,-592.2873C143.2606,-568.0411 112,-512.4234 112,-460.7738 112,-460.7738 112,-460.7738 112,-244.7738 112,-199.4372 112.9669,-146.2265 116.5815,-118.01"/>
</g>
<!-- 4&#45;&#45;5 -->
<g id="edge15" class="edge">
<title>4&#45;&#45;5</title>
<path fill="none" stroke="#000000" d="M170.1601,-587.7108C168.96,-576.3998 168.9468,-561.602 170.1206,-550.2145"/>
</g>
<!-- 11&#45;&#45;10 -->
<g id="edge38" class="edge">
<title>11&#45;&#45;10</title>
<path fill="none" stroke="#000000" d="M110.8439,-80.9057C105.2211,-69.2391 99.3036,-53.7456 95.7038,-41.3968"/>
</g>
<!-- 11&#45;&#45;4 -->
<g id="edge39" class="edge">
<title>11&#45;&#45;4</title>
<path fill="none" stroke="#000000" d="M128.5715,-118.4879C130.9561,-146.8241 130,-199.6919 130,-244.7738 130,-460.7738 130,-460.7738 130,-460.7738 130,-509.2121 157.4941,-561.1402 170.423,-587.4094"/>
</g>
<!-- 11&#45;&#45;6 -->
<g id="edge40" class="edge">
<title>11&#45;&#45;6</title>
<path fill="none" stroke="#000000" d="M138.4253,-111.9628C149.0718,-124.3641 162.3561,-142.5677 170.5074,-155.8247"/>
</g>
<!-- 5&#45;&#45;8 -->
<g id="edge16" class="edge">
<title>5&#45;&#45;8</title>
<path fill="none" stroke="#000000" d="M183.1875,-516.0746C192.1878,-502.615 206.8663,-484.0449 218.0004,-472.2222"/>
</g>
<!-- 5&#45;&#45;4 -->
<g id="edge18" class="edge">
<title>5&#45;&#45;4</title>
<path fill="none" stroke="#000000" d="M181.8794,-550.2145C183.0532,-561.602 183.04,-576.3998 181.8399,-587.7108"/>
</g>
<!-- 5&#45;&#45;6 -->
<g id="edge17" class="edge">
<title>5&#45;&#45;6</title>
<path fill="none" stroke="#000000" d="M170.4851,-515.4847C167.489,-488.4505 168,-434.5249 168,-388.7738 168,-388.7738 168,-388.7738 168,-316.7738 168,-271.0238 168,-217.0978 171.2876,-190.0632"/>
</g>
<!-- 6&#45;&#45;7 -->
<g id="edge19" class="edge">
<title>6&#45;&#45;7</title>
<path fill="none" stroke="#000000" d="M191.2485,-184.6631C202.1657,-196.5026 216.3399,-214.7811 225.0444,-228.0746"/>
</g>
<!-- 6&#45;&#45;11 -->
<g id="edge21" class="edge">
<title>6&#45;&#45;11</title>
<path fill="none" stroke="#000000" d="M163.2091,-160.773C152.9089,-149.0613 139.598,-131.0531 130.9315,-117.337"/>
</g>
<!-- 6&#45;&#45;5 -->
<g id="edge20" class="edge">
<title>6&#45;&#45;5</title>
<path fill="none" stroke="#000000" d="M182.7124,-190.0632C186,-217.0978 186,-271.0238 186,-316.7738 186,-388.7738 186,-388.7738 186,-388.7738 186,-434.5249 185.489,-488.4505 181.91,-515.4847"/>
</g>
</g>
</svg>
