<?xml version="1.0" encoding="UTF-8" standalone="no"?>
<!DOCTYPE svg PUBLIC "-//W3C//DTD SVG 1.1//EN"
 "http://www.w3.org/Graphics/SVG/1.1/DTD/svg11.dtd">
<!-- Generated by graphviz version 2.40.1 (20161225.0304)
 -->
<!-- Title: G Pages: 1 -->
<svg width="170pt" height="288pt"
 viewBox="0.00 0.00 169.62 288.00" xmlns="http://www.w3.org/2000/svg" xmlns:xlink="http://www.w3.org/1999/xlink">
<g id="graph0" class="graph" transform="scale(.1237 .1237) rotate(0) translate(4 2323.8988)">
<title>G</title>
<polygon fill="#ffffff" stroke="transparent" points="-4,4 -4,-2323.8988 1367,-2323.8988 1367,4 -4,4"/>
<!-- 0 -->
<g id="node1" class="node">
<title>0</title>
<ellipse fill="none" stroke="#000000" cx="1322" cy="-2301.8988" rx="18" ry="18"/>
<text text-anchor="middle" x="1322" y="-2297.6988" font-family="Times,serif" font-size="14.00" fill="#000000">0</text>
</g>
<!-- 1 -->
<g id="node2" class="node">
<title>1</title>
<ellipse fill="none" stroke="#000000" cx="1345" cy="-2229.8988" rx="18" ry="18"/>
<text text-anchor="middle" x="1345" y="-2225.6988" font-family="Times,serif" font-size="14.00" fill="#000000">1</text>
</g>
<!-- 0&#45;&#45;1 -->
<g id="edge1" class="edge">
<title>0&#45;&#45;1</title>
<path fill="none" stroke="#000000" d="M1321.8515,-2283.7302C1324.5149,-2271.7324 1329.593,-2256.1995 1334.6028,-2244.9047"/>
</g>
<!-- 20 -->
<g id="node3" class="node">
<title>20</title>
<ellipse fill="none" stroke="#000000" cx="1194" cy="-2000.4316" rx="20.8887" ry="20.8887"/>
<text text-anchor="middle" x="1194" y="-1996.2316" font-family="Times,serif" font-size="14.00" fill="#000000">20</text>
</g>
<!-- 0&#45;&#45;20 -->
<g id="edge2" class="edge">
<title>0&#45;&#45;20</title>
<path fill="none" stroke="#000000" d="M1315.8373,-2284.7208C1301.2209,-2244.4079 1262.766,-2140.8193 1224,-2057.125 1217.9157,-2043.9893 1210.2746,-2029.5748 1204.2267,-2018.5676"/>
</g>
<!-- 21 -->
<g id="node4" class="node">
<title>21</title>
<ellipse fill="none" stroke="#000000" cx="1194" cy="-2077.8185" rx="20.8887" ry="20.8887"/>
<text text-anchor="middle" x="1194" y="-2073.6185" font-family="Times,serif" font-size="14.00" fill="#000000">21</text>
</g>
<!-- 0&#45;&#45;21 -->
<g id="edge3" class="edge">
<title>0&#45;&#45;21</title>
<path fill="none" stroke="#000000" d="M1305.2097,-2294.7095C1270.9946,-2279.0085 1193.9128,-2238.0132 1164,-2175.8988 1150.943,-2148.7859 1168.1995,-2114.7265 1181.4366,-2094.7081"/>
</g>
<!-- 1&#45;&#45;0 -->
<g id="edge4" class="edge">
<title>1&#45;&#45;0</title>
<path fill="none" stroke="#000000" d="M1345.1372,-2248.1183C1342.4639,-2260.1402 1337.3736,-2275.6943 1332.3583,-2286.9804"/>
</g>
<!-- 3 -->
<g id="node5" class="node">
<title>3</title>
<ellipse fill="none" stroke="#000000" cx="1106" cy="-559.7083" rx="18" ry="18"/>
<text text-anchor="middle" x="1106" y="-555.5083" font-family="Times,serif" font-size="14.00" fill="#000000">3</text>
</g>
<!-- 1&#45;&#45;3 -->
<g id="edge5" class="edge">
<title>1&#45;&#45;3</title>
<path fill="none" stroke="#000000" d="M1341.185,-2212.2492C1332.7322,-2138.8572 1323,-1850.5862 1323,-1613.497 1323,-1613.497 1323,-1613.497 1323,-1002.4821 1323,-954.1514 1149.9688,-651.4008 1112.7402,-576.4683"/>
</g>
<!-- 23 -->
<g id="node6" class="node">
<title>23</title>
<ellipse fill="none" stroke="#000000" cx="1136" cy="-1923.0447" rx="20.8887" ry="20.8887"/>
<text text-anchor="middle" x="1136" y="-1918.8447" font-family="Times,serif" font-size="14.00" fill="#000000">23</text>
</g>
<!-- 1&#45;&#45;23 -->
<g id="edge6" class="edge">
<title>1&#45;&#45;23</title>
<path fill="none" stroke="#000000" d="M1327.2258,-2226.962C1286.1401,-2219.8162 1186.3905,-2200.304 1164,-2175.8988 1103.6863,-2110.158 1121.1218,-1990.7324 1131.1611,-1943.2749"/>
</g>
<!-- 22 -->
<g id="node7" class="node">
<title>22</title>
<ellipse fill="none" stroke="#000000" cx="1194" cy="-2155.2054" rx="20.8887" ry="20.8887"/>
<text text-anchor="middle" x="1194" y="-2151.0054" font-family="Times,serif" font-size="14.00" fill="#000000">22</text>
</g>
<!-- 1&#45;&#45;22 -->
<g id="edge7" class="edge">
<title>1&#45;&#45;22</title>
<path fill="none" stroke="#000000" d="M1328.8404,-2221.9053C1300.6901,-2207.9805 1242.8078,-2179.3486 1212.8665,-2164.5379"/>
</g>
<!-- 20&#45;&#45;21 -->
<g id="edge79" class="edge">
<title>20&#45;&#45;21</title>
<path fill="none" stroke="#000000" d="M1199.9823,-2020.2931C1201.0039,-2031.8357 1201.0059,-2046.3353 1199.9882,-2057.8894"/>
</g>
<!-- 20&#45;&#45;23 -->
<g id="edge80" class="edge">
<title>20&#45;&#45;23</title>
<path fill="none" stroke="#000000" d="M1178.3149,-1986.5963C1167.3802,-1974.2494 1153.5341,-1956.0464 1144.4928,-1942.2828"/>
</g>
<!-- 21&#45;&#45;20 -->
<g id="edge82" class="edge">
<title>21&#45;&#45;20</title>
<path fill="none" stroke="#000000" d="M1188.0118,-2057.8894C1186.9941,-2046.3353 1186.9961,-2031.8357 1188.0177,-2020.2931"/>
</g>
<!-- 21&#45;&#45;22 -->
<g id="edge81" class="edge">
<title>21&#45;&#45;22</title>
<path fill="none" stroke="#000000" d="M1199.9823,-2097.68C1201.0039,-2109.2226 1201.0059,-2123.7222 1199.9882,-2135.2763"/>
</g>
<!-- 3&#45;&#45;1 -->
<g id="edge14" class="edge">
<title>3&#45;&#45;1</title>
<path fill="none" stroke="#000000" d="M1117.0781,-574.0452C1164.0849,-644.6112 1341,-953.612 1341,-1002.4821 1341,-1613.497 1341,-1613.497 1341,-1613.497 1341,-1850.3186 1350.7102,-2138.2065 1347.5365,-2211.9999"/>
</g>
<!-- 2 -->
<g id="node8" class="node">
<title>2</title>
<ellipse fill="none" stroke="#000000" cx="1054" cy="-485.0149" rx="18" ry="18"/>
<text text-anchor="middle" x="1054" y="-480.8149" font-family="Times,serif" font-size="14.00" fill="#000000">2</text>
</g>
<!-- 3&#45;&#45;2 -->
<g id="edge13" class="edge">
<title>3&#45;&#45;2</title>
<path fill="none" stroke="#000000" d="M1092.5305,-547.7075C1081.9812,-535.336 1068.2606,-515.9385 1060.0577,-501.9961"/>
</g>
<!-- 17 -->
<g id="node13" class="node">
<title>17</title>
<ellipse fill="none" stroke="#000000" cx="935" cy="-634.4018" rx="20.8887" ry="20.8887"/>
<text text-anchor="middle" x="935" y="-630.2018" font-family="Times,serif" font-size="14.00" fill="#000000">17</text>
</g>
<!-- 3&#45;&#45;17 -->
<g id="edge15" class="edge">
<title>3&#45;&#45;17</title>
<path fill="none" stroke="#000000" d="M1090.1128,-568.6439C1058.6287,-583.7295 989.3383,-613.9294 954.894,-627.5087"/>
</g>
<!-- 19 -->
<g id="node14" class="node">
<title>19</title>
<ellipse fill="none" stroke="#000000" cx="1111" cy="-485.0149" rx="20.8887" ry="20.8887"/>
<text text-anchor="middle" x="1111" y="-480.8149" font-family="Times,serif" font-size="14.00" fill="#000000">19</text>
</g>
<!-- 3&#45;&#45;19 -->
<g id="edge16" class="edge">
<title>3&#45;&#45;19</title>
<path fill="none" stroke="#000000" d="M1101.345,-542.007C1100.9456,-530.7043 1101.8722,-516.0454 1103.6966,-504.425"/>
</g>
<!-- 23&#45;&#45;20 -->
<g id="edge87" class="edge">
<title>23&#45;&#45;20</title>
<path fill="none" stroke="#000000" d="M1151.6629,-1936.8548C1162.6298,-1949.2346 1176.5328,-1967.5165 1185.5786,-1981.3022"/>
</g>
<!-- 23&#45;&#45;22 -->
<g id="edge86" class="edge">
<title>23&#45;&#45;22</title>
<path fill="none" stroke="#000000" d="M1142.5593,-1942.7551C1148.2396,-1975.7572 1154.7673,-2043.945 1173,-2098.5119 1177.2348,-2111.186 1184.0913,-2124.4352 1189.2542,-2134.9355"/>
</g>
<!-- 26 -->
<g id="node12" class="node">
<title>26</title>
<ellipse fill="none" stroke="#000000" cx="1136" cy="-1845.6578" rx="20.8887" ry="20.8887"/>
<text text-anchor="middle" x="1136" y="-1841.4578" font-family="Times,serif" font-size="14.00" fill="#000000">26</text>
</g>
<!-- 23&#45;&#45;26 -->
<g id="edge88" class="edge">
<title>23&#45;&#45;26</title>
<path fill="none" stroke="#000000" d="M1130.0118,-1903.1156C1128.9941,-1891.5614 1128.9961,-1877.0619 1130.0177,-1865.5193"/>
</g>
<!-- 22&#45;&#45;21 -->
<g id="edge83" class="edge">
<title>22&#45;&#45;21</title>
<path fill="none" stroke="#000000" d="M1188.0118,-2135.2763C1186.9941,-2123.7222 1186.9961,-2109.2226 1188.0177,-2097.68"/>
</g>
<!-- 22&#45;&#45;23 -->
<g id="edge85" class="edge">
<title>22&#45;&#45;23</title>
<path fill="none" stroke="#000000" d="M1178.0148,-2141.7945C1169.4337,-2130.6494 1160.223,-2114.1432 1155,-2098.5119 1136.8651,-2044.2376 1130.31,-1976.488 1131.4991,-1943.289"/>
</g>
<!-- 22&#45;&#45;19 -->
<g id="edge84" class="edge">
<title>22&#45;&#45;19</title>
<path fill="none" stroke="#000000" d="M1199.023,-2135.0241C1204.2564,-2124.5464 1211.0925,-2111.2907 1215,-2098.5119 1278.3955,-1891.1905 1267,-1830.2946 1267,-1613.497 1267,-1613.497 1267,-1613.497 1267,-1002.4821 1267,-799.2774 1150.0774,-571.4982 1118.451,-504.5133"/>
</g>
<!-- 2&#45;&#45;3 -->
<g id="edge8" class="edge">
<title>2&#45;&#45;3</title>
<path fill="none" stroke="#000000" d="M1067.7531,-497.349C1078.177,-509.6314 1091.5896,-528.5937 1099.7402,-542.3844"/>
</g>
<!-- 16 -->
<g id="node9" class="node">
<title>16</title>
<ellipse fill="none" stroke="#000000" cx="897" cy="-711.7887" rx="20.8887" ry="20.8887"/>
<text text-anchor="middle" x="897" y="-707.5887" font-family="Times,serif" font-size="14.00" fill="#000000">16</text>
</g>
<!-- 2&#45;&#45;16 -->
<g id="edge9" class="edge">
<title>2&#45;&#45;16</title>
<path fill="none" stroke="#000000" d="M1047.628,-502.2532C1035.1538,-534.5271 1005.1826,-605.2995 965,-655.0952 950.3284,-673.2769 929.1067,-689.8545 914.2854,-700.3231"/>
</g>
<!-- 15 -->
<g id="node10" class="node">
<title>15</title>
<ellipse fill="none" stroke="#000000" cx="255" cy="-407.628" rx="20.8887" ry="20.8887"/>
<text text-anchor="middle" x="255" y="-403.428" font-family="Times,serif" font-size="14.00" fill="#000000">15</text>
</g>
<!-- 2&#45;&#45;15 -->
<g id="edge10" class="edge">
<title>2&#45;&#45;15</title>
<path fill="none" stroke="#000000" d="M1035.8105,-483.2532C929.4227,-472.949 388.5756,-420.5654 275.674,-409.6304"/>
</g>
<!-- 25 -->
<g id="node11" class="node">
<title>25</title>
<ellipse fill="none" stroke="#000000" cx="1189" cy="-330.2411" rx="20.8887" ry="20.8887"/>
<text text-anchor="middle" x="1189" y="-326.0411" font-family="Times,serif" font-size="14.00" fill="#000000">25</text>
</g>
<!-- 2&#45;&#45;25 -->
<g id="edge11" class="edge">
<title>2&#45;&#45;25</title>
<path fill="none" stroke="#000000" d="M1067.6696,-472.9343C1079.9942,-461.8015 1098.374,-444.5899 1113,-428.3214 1119.6609,-420.9124 1156.3844,-372.9911 1176.2421,-346.9796"/>
</g>
<!-- 2&#45;&#45;26 -->
<g id="edge12" class="edge">
<title>2&#45;&#45;26</title>
<path fill="none" stroke="#000000" d="M1057.1643,-502.8328C1072.234,-587.9498 1136,-951.1471 1136,-1002.4821 1136,-1690.8839 1136,-1690.8839 1136,-1690.8839 1136,-1738.7133 1136,-1794.8568 1136,-1824.6291"/>
</g>
<!-- 16&#45;&#45;15 -->
<g id="edge64" class="edge">
<title>16&#45;&#45;15</title>
<path fill="none" stroke="#000000" d="M878.3553,-702.4434C815.2976,-667.4874 605.6384,-542.4485 421,-464.3214 369.3822,-442.4801 306.2917,-423.9408 274.6174,-414.441"/>
</g>
<!-- 16&#45;&#45;17 -->
<g id="edge63" class="edge">
<title>16&#45;&#45;17</title>
<path fill="none" stroke="#000000" d="M900.9608,-691.4562C906.1544,-678.6485 914.3021,-662.3469 921.5247,-650.4511"/>
</g>
<!-- 28 -->
<g id="node35" class="node">
<title>28</title>
<ellipse fill="none" stroke="#000000" cx="882" cy="-1690.8839" rx="20.8887" ry="20.8887"/>
<text text-anchor="middle" x="882" y="-1686.6839" font-family="Times,serif" font-size="14.00" fill="#000000">28</text>
</g>
<!-- 16&#45;&#45;28 -->
<g id="edge65" class="edge">
<title>16&#45;&#45;28</title>
<path fill="none" stroke="#000000" d="M901.2188,-732.1874C908.8125,-770.7414 924,-857.0309 924,-930.4821 924,-1536.1101 924,-1536.1101 924,-1536.1101 924,-1586.5046 903.0045,-1643.0085 890.7024,-1671.7909"/>
</g>
<!-- 27 -->
<g id="node36" class="node">
<title>27</title>
<ellipse fill="none" stroke="#000000" cx="1076" cy="-1768.2708" rx="20.8887" ry="20.8887"/>
<text text-anchor="middle" x="1076" y="-1764.0708" font-family="Times,serif" font-size="14.00" fill="#000000">27</text>
</g>
<!-- 16&#45;&#45;27 -->
<g id="edge66" class="edge">
<title>16&#45;&#45;27</title>
<path fill="none" stroke="#000000" d="M911.0458,-727.0559C953.2434,-774.5784 1076,-925.6186 1076,-1074.4821 1076,-1613.497 1076,-1613.497 1076,-1613.497 1076,-1661.3264 1076,-1717.4699 1076,-1747.2422"/>
</g>
<!-- 15&#45;&#45;16 -->
<g id="edge60" class="edge">
<title>15&#45;&#45;16</title>
<path fill="none" stroke="#000000" d="M275.3264,-411.6171C310.13,-419.8617 381.6469,-440.0533 439,-464.3214 618.1457,-540.1243 820.8458,-660.0895 880.1204,-699.0882"/>
</g>
<!-- 14 -->
<g id="node22" class="node">
<title>14</title>
<ellipse fill="none" stroke="#000000" cx="255" cy="-175.4673" rx="20.8887" ry="20.8887"/>
<text text-anchor="middle" x="255" y="-171.2673" font-family="Times,serif" font-size="14.00" fill="#000000">14</text>
</g>
<!-- 15&#45;&#45;14 -->
<g id="edge58" class="edge">
<title>15&#45;&#45;14</title>
<path fill="none" stroke="#000000" d="M250.953,-387.0253C247.3477,-342.9688 247.349,-240.0391 250.9568,-196.0238"/>
</g>
<!-- 29 -->
<g id="node27" class="node">
<title>29</title>
<ellipse fill="none" stroke="#000000" cx="452" cy="-1613.497" rx="20.8887" ry="20.8887"/>
<text text-anchor="middle" x="452" y="-1609.297" font-family="Times,serif" font-size="14.00" fill="#000000">29</text>
</g>
<!-- 15&#45;&#45;29 -->
<g id="edge61" class="edge">
<title>15&#45;&#45;29</title>
<path fill="none" stroke="#000000" d="M249.117,-427.5461C233.1167,-483.541 190,-647.3411 190,-786.4821 190,-1074.4821 190,-1074.4821 190,-1074.4821 190,-1211.2118 212,-1244.6066 212,-1381.3363 212,-1458.7232 212,-1458.7232 212,-1458.7232 212,-1510.774 234.6306,-1525.2147 276,-1556.8036 323.8389,-1593.3325 396.015,-1606.765 431.2154,-1611.3381"/>
</g>
<!-- 12 -->
<g id="node32" class="node">
<title>12</title>
<ellipse fill="none" stroke="#000000" cx="157" cy="-330.2411" rx="20.8887" ry="20.8887"/>
<text text-anchor="middle" x="157" y="-326.0411" font-family="Times,serif" font-size="14.00" fill="#000000">12</text>
</g>
<!-- 15&#45;&#45;12 -->
<g id="edge59" class="edge">
<title>15&#45;&#45;12</title>
<path fill="none" stroke="#000000" d="M236.9948,-397.1912C217.8237,-383.9067 188.3871,-360.8513 170.9025,-345.5692"/>
</g>
<!-- 37 -->
<g id="node34" class="node">
<title>37</title>
<ellipse fill="none" stroke="#000000" cx="257" cy="-1226.5625" rx="20.8887" ry="20.8887"/>
<text text-anchor="middle" x="257" y="-1222.3625" font-family="Times,serif" font-size="14.00" fill="#000000">37</text>
</g>
<!-- 15&#45;&#45;37 -->
<g id="edge62" class="edge">
<title>15&#45;&#45;37</title>
<path fill="none" stroke="#000000" d="M259.2167,-428.1889C264.8143,-457.3222 274,-512.3459 274,-559.7083 274,-634.4018 274,-634.4018 274,-634.4018 274,-736.0699 228,-756.8141 228,-858.4821 228,-1074.4821 228,-1074.4821 228,-1074.4821 228,-1122.5948 242.1783,-1177.7781 250.7074,-1206.6215"/>
</g>
<!-- 25&#45;&#45;26 -->
<g id="edge95" class="edge">
<title>25&#45;&#45;26</title>
<path fill="none" stroke="#000000" d="M1207.1975,-340.2042C1239.9481,-362.6298 1304,-420.2043 1304,-485.0149 1304,-559.7083 1304,-559.7083 1304,-559.7083 1304,-731.8508 1192,-758.3397 1192,-930.4821 1192,-1690.8839 1192,-1690.8839 1192,-1690.8839 1192,-1743.6782 1166.6526,-1802.4014 1149.6223,-1829.8732"/>
</g>
<!-- 25&#45;&#45;29 -->
<g id="edge94" class="edge">
<title>25&#45;&#45;29</title>
<path fill="none" stroke="#000000" d="M1185.6047,-350.771C1178.2526,-393.584 1159.3717,-495.2666 1133,-577.7083 1070.9951,-771.5445 962,-798.9704 962,-1002.4821 962,-1458.7232 962,-1458.7232 962,-1458.7232 962,-1562.7029 568.9121,-1603.4024 472.9434,-1611.7894"/>
</g>
<!-- 25&#45;&#45;28 -->
<g id="edge93" class="edge">
<title>25&#45;&#45;28</title>
<path fill="none" stroke="#000000" d="M1200.6565,-347.982C1217.8509,-375.9128 1248,-432.3903 1248,-485.0149 1248,-559.7083 1248,-559.7083 1248,-559.7083 1248,-806.8019 1038,-827.3886 1038,-1074.4821 1038,-1536.1101 1038,-1536.1101 1038,-1536.1101 1038,-1586.3063 1017.548,-1598.7504 982,-1634.1905 958.5388,-1657.5804 923.4567,-1674.4745 901.6894,-1683.4622"/>
</g>
<!-- 24 -->
<g id="node39" class="node">
<title>24</title>
<ellipse fill="none" stroke="#000000" cx="1083" cy="-407.628" rx="20.8887" ry="20.8887"/>
<text text-anchor="middle" x="1083" y="-403.428" font-family="Times,serif" font-size="14.00" fill="#000000">24</text>
</g>
<!-- 25&#45;&#45;24 -->
<g id="edge92" class="edge">
<title>25&#45;&#45;24</title>
<path fill="none" stroke="#000000" d="M1174.0522,-345.1363C1154.9016,-360.5349 1122.3073,-384.1548 1101.5889,-397.511"/>
</g>
<!-- 26&#45;&#45;23 -->
<g id="edge97" class="edge">
<title>26&#45;&#45;23</title>
<path fill="none" stroke="#000000" d="M1141.9823,-1865.5193C1143.0039,-1877.0619 1143.0059,-1891.5614 1141.9882,-1903.1156"/>
</g>
<!-- 26&#45;&#45;25 -->
<g id="edge96" class="edge">
<title>26&#45;&#45;25</title>
<path fill="none" stroke="#000000" d="M1140.4562,-1825.2297C1151.2774,-1796.1711 1174,-1740.87 1174,-1690.8839 1174,-1690.8839 1174,-1690.8839 1174,-930.4821 1174,-758.3397 1286,-731.8508 1286,-559.7083 1286,-559.7083 1286,-559.7083 1286,-485.0149 1286,-424.7638 1230.6434,-370.7665 1203.3343,-345.4494"/>
</g>
<!-- 26&#45;&#45;27 -->
<g id="edge98" class="edge">
<title>26&#45;&#45;27</title>
<path fill="none" stroke="#000000" d="M1120.282,-1832.178C1108.8696,-1819.7063 1094.1939,-1801.0446 1084.7132,-1787.1029"/>
</g>
<!-- 17&#45;&#45;3 -->
<g id="edge68" class="edge">
<title>17&#45;&#45;3</title>
<path fill="none" stroke="#000000" d="M953.2733,-624.3283C986.6542,-608.4797 1056.2404,-578.2233 1088.8263,-565.5354"/>
</g>
<!-- 17&#45;&#45;16 -->
<g id="edge67" class="edge">
<title>17&#45;&#45;16</title>
<path fill="none" stroke="#000000" d="M930.9968,-654.8387C925.7992,-667.6357 917.6716,-683.8893 910.4664,-695.7541"/>
</g>
<!-- 18 -->
<g id="node37" class="node">
<title>18</title>
<ellipse fill="none" stroke="#000000" cx="935" cy="-407.628" rx="20.8887" ry="20.8887"/>
<text text-anchor="middle" x="935" y="-403.428" font-family="Times,serif" font-size="14.00" fill="#000000">18</text>
</g>
<!-- 17&#45;&#45;18 -->
<g id="edge69" class="edge">
<title>17&#45;&#45;18</title>
<path fill="none" stroke="#000000" d="M930.9198,-613.8772C927.3543,-570.702 927.3601,-470.934 930.9372,-427.9428"/>
</g>
<!-- 19&#45;&#45;3 -->
<g id="edge78" class="edge">
<title>19&#45;&#45;3</title>
<path fill="none" stroke="#000000" d="M1115.7233,-505.3496C1115.9227,-517.0785 1114.8391,-531.6543 1112.8954,-542.7592"/>
</g>
<!-- 19&#45;&#45;22 -->
<g id="edge75" class="edge">
<title>19&#45;&#45;22</title>
<path fill="none" stroke="#000000" d="M1123.7094,-501.3776C1164.2486,-564.0929 1285,-795.9771 1285,-1002.4821 1285,-1613.497 1285,-1613.497 1285,-1613.497 1285,-1830.2946 1296.3955,-1891.1905 1233,-2098.5119 1228.1807,-2114.2724 1218.9069,-2130.7584 1210.2008,-2141.8634"/>
</g>
<!-- 19&#45;&#45;25 -->
<g id="edge74" class="edge">
<title>19&#45;&#45;25</title>
<path fill="none" stroke="#000000" d="M1122.6874,-467.5134C1129.8231,-456.493 1138.9069,-441.8425 1146,-428.3214 1159.9059,-401.8137 1173.3282,-369.8547 1181.3752,-349.7855"/>
</g>
<!-- 19&#45;&#45;18 -->
<g id="edge77" class="edge">
<title>19&#45;&#45;18</title>
<path fill="none" stroke="#000000" d="M1091.8788,-476.5047C1085.4871,-472.4858 1078.5977,-467.8161 1072,-464.3214 1031.6321,-442.9392 981.3701,-425.2053 954.1287,-415.5399"/>
</g>
<!-- 19&#45;&#45;24 -->
<g id="edge76" class="edge">
<title>19&#45;&#45;24</title>
<path fill="none" stroke="#000000" d="M1103.9344,-465.4869C1099.6898,-453.7556 1094.3075,-438.8799 1090.0633,-427.1497"/>
</g>
<!-- 4 -->
<g id="node15" class="node">
<title>4</title>
<ellipse fill="none" stroke="#000000" cx="572" cy="-786.4821" rx="18" ry="18"/>
<text text-anchor="middle" x="572" y="-782.2821" font-family="Times,serif" font-size="14.00" fill="#000000">4</text>
</g>
<!-- 6 -->
<g id="node16" class="node">
<title>6</title>
<ellipse fill="none" stroke="#000000" cx="500" cy="-858.4821" rx="18" ry="18"/>
<text text-anchor="middle" x="500" y="-854.2821" font-family="Times,serif" font-size="14.00" fill="#000000">6</text>
</g>
<!-- 4&#45;&#45;6 -->
<g id="edge17" class="edge">
<title>4&#45;&#45;6</title>
<path fill="none" stroke="#000000" d="M562.3134,-801.8121C550.0344,-815.7826 529.5349,-836.0345 515.2164,-848.1663"/>
</g>
<!-- 7 -->
<g id="node17" class="node">
<title>7</title>
<ellipse fill="none" stroke="#000000" cx="500" cy="-1074.4821" rx="18" ry="18"/>
<text text-anchor="middle" x="500" y="-1070.2821" font-family="Times,serif" font-size="14.00" fill="#000000">7</text>
</g>
<!-- 4&#45;&#45;7 -->
<g id="edge18" class="edge">
<title>4&#45;&#45;7</title>
<path fill="none" stroke="#000000" d="M572.717,-804.5384C573.134,-822.8008 572.9495,-851.782 569,-876.4821 558.4737,-942.3126 551.3388,-958.4171 527,-1020.4821 521.7958,-1033.7531 514.5009,-1048.1639 508.8055,-1058.7581"/>
</g>
<!-- 8 -->
<g id="node18" class="node">
<title>8</title>
<ellipse fill="none" stroke="#000000" cx="500" cy="-1002.4821" rx="18" ry="18"/>
<text text-anchor="middle" x="500" y="-998.2821" font-family="Times,serif" font-size="14.00" fill="#000000">8</text>
</g>
<!-- 4&#45;&#45;8 -->
<g id="edge19" class="edge">
<title>4&#45;&#45;8</title>
<path fill="none" stroke="#000000" d="M568.2268,-804.3416C561.5776,-834.5792 546.6012,-897.5378 527,-948.4821 521.8811,-961.7863 514.5809,-976.195 508.8618,-986.7799"/>
</g>
<!-- 6&#45;&#45;4 -->
<g id="edge27" class="edge">
<title>6&#45;&#45;4</title>
<path fill="none" stroke="#000000" d="M509.6334,-843.2128C521.9611,-829.1779 542.6279,-808.7661 556.9752,-796.6358"/>
</g>
<!-- 5 -->
<g id="node19" class="node">
<title>5</title>
<ellipse fill="none" stroke="#000000" cx="518" cy="-786.4821" rx="18" ry="18"/>
<text text-anchor="middle" x="518" y="-782.2821" font-family="Times,serif" font-size="14.00" fill="#000000">5</text>
</g>
<!-- 6&#45;&#45;5 -->
<g id="edge26" class="edge">
<title>6&#45;&#45;5</title>
<path fill="none" stroke="#000000" d="M498.5898,-840.3135C500.3946,-828.4824 504.3088,-813.2136 508.469,-801.9611"/>
</g>
<!-- 6&#45;&#45;14 -->
<g id="edge25" class="edge">
<title>6&#45;&#45;14</title>
<path fill="none" stroke="#000000" d="M488.5697,-844.2096C474.3812,-818.3254 454,-761.6926 454,-711.7887 454,-711.7887 454,-711.7887 454,-634.4018 454,-447.2001 308.6514,-252.2767 266.2162,-193.3563"/>
</g>
<!-- 9 -->
<g id="node23" class="node">
<title>9</title>
<ellipse fill="none" stroke="#000000" cx="500" cy="-930.4821" rx="18" ry="18"/>
<text text-anchor="middle" x="500" y="-926.2821" font-family="Times,serif" font-size="14.00" fill="#000000">9</text>
</g>
<!-- 6&#45;&#45;9 -->
<g id="edge28" class="edge">
<title>6&#45;&#45;9</title>
<path fill="none" stroke="#000000" d="M505.8794,-875.9228C507.0532,-887.3104 507.04,-902.1081 505.8399,-913.4192"/>
</g>
<!-- 7&#45;&#45;8 -->
<g id="edge29" class="edge">
<title>7&#45;&#45;8</title>
<path fill="none" stroke="#000000" d="M494.1601,-1057.4192C492.96,-1046.1081 492.9468,-1031.3104 494.1206,-1019.9228"/>
</g>
<!-- 36 -->
<g id="node21" class="node">
<title>36</title>
<ellipse fill="none" stroke="#000000" cx="315" cy="-1149.1756" rx="20.8887" ry="20.8887"/>
<text text-anchor="middle" x="315" y="-1144.9756" font-family="Times,serif" font-size="14.00" fill="#000000">36</text>
</g>
<!-- 7&#45;&#45;36 -->
<g id="edge30" class="edge">
<title>7&#45;&#45;36</title>
<path fill="none" stroke="#000000" d="M487.0994,-1087.3413C483.8321,-1089.1554 480.3548,-1090.9288 477,-1092.4821 427.9021,-1115.2152 366.8991,-1135.585 335.3485,-1144.4635"/>
</g>
<!-- 8&#45;&#45;7 -->
<g id="edge32" class="edge">
<title>8&#45;&#45;7</title>
<path fill="none" stroke="#000000" d="M505.8794,-1019.9228C507.0532,-1031.3104 507.04,-1046.1081 505.8399,-1057.4192"/>
</g>
<!-- 8&#45;&#45;9 -->
<g id="edge31" class="edge">
<title>8&#45;&#45;9</title>
<path fill="none" stroke="#000000" d="M494.1601,-985.4192C492.96,-974.1081 492.9468,-959.3104 494.1206,-947.9228"/>
</g>
<!-- 5&#45;&#45;16 -->
<g id="edge21" class="edge">
<title>5&#45;&#45;16</title>
<path fill="none" stroke="#000000" d="M532.2207,-775.3648C536.1732,-772.7424 540.5946,-770.2104 545,-768.4821 606.5129,-744.351 810.2507,-721.0379 876.2027,-713.9623"/>
</g>
<!-- 5&#45;&#45;15 -->
<g id="edge22" class="edge">
<title>5&#45;&#45;15</title>
<path fill="none" stroke="#000000" d="M514.1052,-768.8191C509.2959,-749.058 499.9959,-716.4894 486,-691.0952 422.5686,-576.005 310.6844,-461.6996 270.1776,-422.1586"/>
</g>
<!-- 5&#45;&#45;6 -->
<g id="edge20" class="edge">
<title>5&#45;&#45;6</title>
<path fill="none" stroke="#000000" d="M519.4155,-804.6159C517.6208,-816.4016 513.7286,-831.6096 509.5842,-842.8592"/>
</g>
<!-- 35 -->
<g id="node20" class="node">
<title>35</title>
<ellipse fill="none" stroke="#000000" cx="559" cy="-711.7887" rx="20.8887" ry="20.8887"/>
<text text-anchor="middle" x="559" y="-707.5887" font-family="Times,serif" font-size="14.00" fill="#000000">35</text>
</g>
<!-- 5&#45;&#45;35 -->
<g id="edge23" class="edge">
<title>5&#45;&#45;35</title>
<path fill="none" stroke="#000000" d="M526.695,-770.6416C533.2298,-758.7367 542.1922,-742.409 549.0194,-729.9712"/>
</g>
<!-- 5&#45;&#45;36 -->
<g id="edge24" class="edge">
<title>5&#45;&#45;36</title>
<path fill="none" stroke="#000000" d="M504.5198,-798.944C494.3158,-809.1403 480.7722,-824.4496 473,-840.4821 455.1665,-877.269 454,-889.6005 454,-930.4821 454,-1002.4821 454,-1002.4821 454,-1002.4821 454,-1071.5994 371.6872,-1121.2096 333.7462,-1140.4055"/>
</g>
<!-- 35&#45;&#45;36 -->
<g id="edge124" class="edge">
<title>35&#45;&#45;36</title>
<path fill="none" stroke="#000000" d="M538.403,-714.7325C480.5181,-723.6401 322,-756.2967 322,-858.4821 322,-1002.4821 322,-1002.4821 322,-1002.4821 322,-1047.564 322.9561,-1100.4318 320.5715,-1128.768"/>
</g>
<!-- 34 -->
<g id="node25" class="node">
<title>34</title>
<ellipse fill="none" stroke="#000000" cx="559" cy="-634.4018" rx="20.8887" ry="20.8887"/>
<text text-anchor="middle" x="559" y="-630.2018" font-family="Times,serif" font-size="14.00" fill="#000000">34</text>
</g>
<!-- 35&#45;&#45;34 -->
<g id="edge121" class="edge">
<title>35&#45;&#45;34</title>
<path fill="none" stroke="#000000" d="M553.0118,-691.8596C551.9941,-680.3055 551.9961,-665.806 553.0177,-654.2633"/>
</g>
<!-- 35&#45;&#45;29 -->
<g id="edge123" class="edge">
<title>35&#45;&#45;29</title>
<path fill="none" stroke="#000000" d="M572.412,-727.89C599.886,-762.5691 660,-847.8854 660,-930.4821 660,-1002.4821 660,-1002.4821 660,-1002.4821 660,-1249.5677 505.6877,-1524.3133 462.8901,-1595.7608"/>
</g>
<!-- 35&#45;&#45;28 -->
<g id="edge122" class="edge">
<title>35&#45;&#45;28</title>
<path fill="none" stroke="#000000" d="M576.4956,-723.3674C591.1945,-733.7878 611.9868,-750.2333 626,-768.4821 738.419,-914.8815 792,-964.5928 792,-1149.1756 792,-1536.1101 792,-1536.1101 792,-1536.1101 792,-1580.9875 792.5224,-1595.9442 816,-1634.1905 828.0116,-1653.758 849.027,-1670.0757 864.1196,-1680.1045"/>
</g>
<!-- 36&#45;&#45;7 -->
<g id="edge127" class="edge">
<title>36&#45;&#45;7</title>
<path fill="none" stroke="#000000" d="M334.5384,-1140.9521C362.7942,-1130.8612 415.5574,-1112.5967 459,-1092.4821 466.7509,-1088.8934 475.1551,-1084.1298 482.6958,-1080.4046"/>
</g>
<!-- 36&#45;&#45;35 -->
<g id="edge126" class="edge">
<title>36&#45;&#45;35</title>
<path fill="none" stroke="#000000" d="M308.5815,-1129.246C304.9669,-1101.0295 304,-1047.8187 304,-1002.4821 304,-1002.4821 304,-1002.4821 304,-858.4821 304,-751.8215 476.7069,-720.9131 537.996,-713.6949"/>
</g>
<!-- 36&#45;&#45;37 -->
<g id="edge125" class="edge">
<title>36&#45;&#45;37</title>
<path fill="none" stroke="#000000" d="M306.5072,-1168.4137C297.4659,-1182.1773 283.6198,-1200.3804 272.6851,-1212.7273"/>
</g>
<!-- 14&#45;&#45;15 -->
<g id="edge56" class="edge">
<title>14&#45;&#45;15</title>
<path fill="none" stroke="#000000" d="M259.0432,-196.0238C262.651,-240.0391 262.6523,-342.9688 259.047,-387.0253"/>
</g>
<!-- 14&#45;&#45;6 -->
<g id="edge55" class="edge">
<title>14&#45;&#45;6</title>
<path fill="none" stroke="#000000" d="M270.486,-189.8211C320.4743,-244.0756 472,-443.2636 472,-634.4018 472,-711.7887 472,-711.7887 472,-711.7887 472,-759.3288 490.496,-812.9753 498.1526,-840.3284"/>
</g>
<!-- 10 -->
<g id="node24" class="node">
<title>10</title>
<ellipse fill="none" stroke="#000000" cx="230" cy="-98.0804" rx="20.8887" ry="20.8887"/>
<text text-anchor="middle" x="230" y="-93.8804" font-family="Times,serif" font-size="14.00" fill="#000000">10</text>
</g>
<!-- 14&#45;&#45;10 -->
<g id="edge57" class="edge">
<title>14&#45;&#45;10</title>
<path fill="none" stroke="#000000" d="M243.5663,-157.907C238.611,-146.3124 233.5854,-131.0659 230.6535,-118.8663"/>
</g>
<!-- 13 -->
<g id="node31" class="node">
<title>13</title>
<ellipse fill="none" stroke="#000000" cx="157" cy="-252.8542" rx="20.8887" ry="20.8887"/>
<text text-anchor="middle" x="157" y="-248.6542" font-family="Times,serif" font-size="14.00" fill="#000000">13</text>
</g>
<!-- 14&#45;&#45;13 -->
<g id="edge54" class="edge">
<title>14&#45;&#45;13</title>
<path fill="none" stroke="#000000" d="M241.0975,-190.7954C223.6129,-206.0774 194.1763,-229.1328 175.0052,-242.4174"/>
</g>
<!-- 9&#45;&#45;6 -->
<g id="edge37" class="edge">
<title>9&#45;&#45;6</title>
<path fill="none" stroke="#000000" d="M494.1601,-913.4192C492.96,-902.1081 492.9468,-887.3104 494.1206,-875.9228"/>
</g>
<!-- 9&#45;&#45;8 -->
<g id="edge35" class="edge">
<title>9&#45;&#45;8</title>
<path fill="none" stroke="#000000" d="M505.8794,-947.9228C507.0532,-959.3104 507.04,-974.1081 505.8399,-985.4192"/>
</g>
<!-- 9&#45;&#45;35 -->
<g id="edge34" class="edge">
<title>9&#45;&#45;35</title>
<path fill="none" stroke="#000000" d="M489.9229,-915.1553C483.6905,-904.7289 476.2751,-890.3557 473,-876.4821 461.8197,-829.1218 465.1348,-809.701 491,-768.4821 503.4997,-748.5626 525.3475,-732.2026 540.9047,-722.2625"/>
</g>
<!-- 9&#45;&#45;10 -->
<g id="edge33" class="edge">
<title>9&#45;&#45;10</title>
<path fill="none" stroke="#000000" d="M482.9244,-924.2407C445.2377,-907.168 360,-856.2732 360,-786.4821 360,-786.4821 360,-786.4821 360,-252.8542 360,-184.053 283.0294,-131.9421 247.3507,-109.7799"/>
</g>
<!-- 9&#45;&#45;34 -->
<g id="edge36" class="edge">
<title>9&#45;&#45;34</title>
<path fill="none" stroke="#000000" d="M513.9933,-918.6709C537.0087,-898.2168 581.9957,-853.6471 599,-804.4821 607.2953,-780.4977 591.5964,-699.268 589,-691.0952 584.6169,-677.2983 576.9491,-662.8942 570.463,-652.0574"/>
</g>
<!-- 10&#45;&#45;14 -->
<g id="edge42" class="edge">
<title>10&#45;&#45;14</title>
<path fill="none" stroke="#000000" d="M241.3607,-115.4701C246.3461,-127.1005 251.4134,-142.4616 254.3579,-154.729"/>
</g>
<!-- 10&#45;&#45;9 -->
<g id="edge39" class="edge">
<title>10&#45;&#45;9</title>
<path fill="none" stroke="#000000" d="M249.3212,-105.5242C289.7336,-124.6401 378,-179.1773 378,-252.8542 378,-786.4821 378,-786.4821 378,-786.4821 378,-851.5416 452.0718,-900.1802 484.9917,-920.3065"/>
</g>
<!-- 11 -->
<g id="node26" class="node">
<title>11</title>
<ellipse fill="none" stroke="#000000" cx="117" cy="-20.6935" rx="20.8887" ry="20.8887"/>
<text text-anchor="middle" x="117" y="-16.4935" font-family="Times,serif" font-size="14.00" fill="#000000">11</text>
</g>
<!-- 10&#45;&#45;11 -->
<g id="edge38" class="edge">
<title>10&#45;&#45;11</title>
<path fill="none" stroke="#000000" d="M211.5297,-88.5912C189.399,-75.1915 153.2656,-50.6205 132.5116,-35.0002"/>
</g>
<!-- 10&#45;&#45;29 -->
<g id="edge40" class="edge">
<title>10&#45;&#45;29</title>
<path fill="none" stroke="#000000" d="M215.6125,-113.4288C165.2599,-168.8173 0,-365.4058 0,-559.7083 0,-1458.7232 0,-1458.7232 0,-1458.7232 0,-1534.332 69.2668,-1527.5807 139,-1556.8036 242.6485,-1600.2393 379.297,-1610.4437 430.9851,-1612.8023"/>
</g>
<!-- 32 -->
<g id="node28" class="node">
<title>32</title>
<ellipse fill="none" stroke="#000000" cx="701" cy="-1536.1101" rx="20.8887" ry="20.8887"/>
<text text-anchor="middle" x="701" y="-1531.9101" font-family="Times,serif" font-size="14.00" fill="#000000">32</text>
</g>
<!-- 10&#45;&#45;32 -->
<g id="edge41" class="edge">
<title>10&#45;&#45;32</title>
<path fill="none" stroke="#000000" d="M227.7337,-118.7853C226.6714,-129.5108 225.5257,-142.8296 225,-154.7738 219.6544,-276.233 224.2145,-306.7472 225,-428.3214 225.2222,-462.7178 223.8374,-471.3793 226,-505.7083 235.9207,-663.1892 266,-700.6891 266,-858.4821 266,-1074.4821 266,-1074.4821 266,-1074.4821 266,-1178.0055 306,-1200.4261 306,-1303.9494 306,-1381.3363 306,-1381.3363 306,-1381.3363 306,-1462.5386 599.045,-1518.6818 680.3192,-1532.6913"/>
</g>
<!-- 34&#45;&#45;35 -->
<g id="edge120" class="edge">
<title>34&#45;&#45;35</title>
<path fill="none" stroke="#000000" d="M564.9823,-654.2633C566.0039,-665.806 566.0059,-680.3055 564.9882,-691.8596"/>
</g>
<!-- 34&#45;&#45;32 -->
<g id="edge119" class="edge">
<title>34&#45;&#45;32</title>
<path fill="none" stroke="#000000" d="M578.9601,-640.8024C625.2501,-657.034 736,-704.4411 736,-786.4821 736,-858.4821 736,-858.4821 736,-858.4821 736,-955.9564 698,-977.0079 698,-1074.4821 698,-1381.3363 698,-1381.3363 698,-1381.3363 698,-1429.1747 699.4504,-1485.3147 700.3342,-1515.084"/>
</g>
<!-- 33 -->
<g id="node38" class="node">
<title>33</title>
<ellipse fill="none" stroke="#000000" cx="839" cy="-330.2411" rx="20.8887" ry="20.8887"/>
<text text-anchor="middle" x="839" y="-326.0411" font-family="Times,serif" font-size="14.00" fill="#000000">33</text>
</g>
<!-- 34&#45;&#45;33 -->
<g id="edge118" class="edge">
<title>34&#45;&#45;33</title>
<path fill="none" stroke="#000000" d="M570.5488,-617.192C599.3606,-574.9871 678.0134,-464.1681 760,-386.9345 779.1691,-368.8767 804.3116,-351.7744 821.0291,-341.1687"/>
</g>
<!-- 11&#45;&#45;10 -->
<g id="edge43" class="edge">
<title>11&#45;&#45;10</title>
<path fill="none" stroke="#000000" d="M135.4423,-30.1657C157.6238,-43.5938 193.8999,-68.2652 214.6381,-83.8864"/>
</g>
<!-- 30 -->
<g id="node29" class="node">
<title>30</title>
<ellipse fill="none" stroke="#000000" cx="90" cy="-1381.3363" rx="20.8887" ry="20.8887"/>
<text text-anchor="middle" x="90" y="-1377.1363" font-family="Times,serif" font-size="14.00" fill="#000000">30</text>
</g>
<!-- 11&#45;&#45;30 -->
<g id="edge44" class="edge">
<title>11&#45;&#45;30</title>
<path fill="none" stroke="#000000" d="M99.4839,-32.2098C66.8448,-55.2158 0,-110.2885 0,-175.4673 0,-330.2411 0,-330.2411 0,-330.2411 0,-433.6155 38,-456.3339 38,-559.7083 38,-1226.5625 38,-1226.5625 38,-1226.5625 38,-1278.1531 64.2825,-1334.616 79.477,-1362.9478"/>
</g>
<!-- 31 -->
<g id="node30" class="node">
<title>31</title>
<ellipse fill="none" stroke="#000000" cx="148" cy="-1458.7232" rx="20.8887" ry="20.8887"/>
<text text-anchor="middle" x="148" y="-1454.5232" font-family="Times,serif" font-size="14.00" fill="#000000">31</text>
</g>
<!-- 11&#45;&#45;31 -->
<g id="edge45" class="edge">
<title>11&#45;&#45;31</title>
<path fill="none" stroke="#000000" d="M107.4888,-39.2026C93.7553,-67.692 70,-124.3579 70,-175.4673 70,-252.8542 70,-252.8542 70,-252.8542 70,-356.0712 76,-381.7979 76,-485.0149 76,-559.7083 76,-559.7083 76,-559.7083 76,-661.9019 114,-684.2886 114,-786.4821 114,-1226.5625 114,-1226.5625 114,-1226.5625 114,-1305.5896 133.5255,-1398.1665 142.9832,-1438.3731"/>
</g>
<!-- 11&#45;&#45;13 -->
<g id="edge46" class="edge">
<title>11&#45;&#45;13</title>
<path fill="none" stroke="#000000" d="M124.3099,-40.1751C135.4493,-83.434 153.369,-187.1948 157.4599,-231.842"/>
</g>
<!-- 29&#45;&#45;32 -->
<g id="edge104" class="edge">
<title>29&#45;&#45;32</title>
<path fill="none" stroke="#000000" d="M472.4306,-1608.9844C510.1988,-1601.3585 591.9434,-1584.0383 657,-1556.8036 665.2044,-1553.369 673.8113,-1548.3023 681.5101,-1544.0422"/>
</g>
<!-- 29&#45;&#45;30 -->
<g id="edge105" class="edge">
<title>29&#45;&#45;30</title>
<path fill="none" stroke="#000000" d="M431.1044,-1612.8743C384.3667,-1610.6632 270.5412,-1600.7376 189,-1556.8036 145.4503,-1533.3392 134.4354,-1521.8454 109,-1479.4167 94.3409,-1454.9639 87.0456,-1422.4751 85.8885,-1401.7297"/>
</g>
<!-- 29&#45;&#45;37 -->
<g id="edge107" class="edge">
<title>29&#45;&#45;37</title>
<path fill="none" stroke="#000000" d="M431.5129,-1609.0377C379.8721,-1595.2866 250,-1548.9191 250,-1458.7232 250,-1458.7232 250,-1458.7232 250,-1381.3363 250,-1332.9655 249.0112,-1276.0983 251.5527,-1246.5966"/>
</g>
<!-- 29&#45;&#45;28 -->
<g id="edge106" class="edge">
<title>29&#45;&#45;28</title>
<path fill="none" stroke="#000000" d="M472.605,-1616.6839C545.447,-1628.8936 789.0073,-1672.7028 861.5696,-1686.6131"/>
</g>
<!-- 32&#45;&#45;29 -->
<g id="edge115" class="edge">
<title>32&#45;&#45;29</title>
<path fill="none" stroke="#000000" d="M686.6211,-1551.0501C682.905,-1553.1624 678.9069,-1555.168 675,-1556.8036 604.0937,-1586.4872 513.3632,-1604.3931 472.7701,-1610.8065"/>
</g>
<!-- 32&#45;&#45;31 -->
<g id="edge113" class="edge">
<title>32&#45;&#45;31</title>
<path fill="none" stroke="#000000" d="M680.109,-1533.7643C618.6485,-1526.0693 434.9018,-1500.859 283,-1479.4167 242.2355,-1473.6624 195.0029,-1466.8465 168.3885,-1462.6537"/>
</g>
<!-- 32&#45;&#45;33 -->
<g id="edge114" class="edge">
<title>32&#45;&#45;33</title>
<path fill="none" stroke="#000000" d="M704.7904,-1515.6093C714.7278,-1486.4641 736,-1431.0609 736,-1381.3363 736,-1381.3363 736,-1381.3363 736,-1149.1756 736,-1050.5221 774,-1029.1356 774,-930.4821 774,-930.4821 774,-930.4821 774,-485.0149 774,-430.722 804.8472,-371.7641 824.4322,-344.9727"/>
</g>
<!-- 30&#45;&#45;29 -->
<g id="edge109" class="edge">
<title>30&#45;&#45;29</title>
<path fill="none" stroke="#000000" d="M98.9941,-1400.2055C104.6876,-1420.8558 111.9767,-1454.3564 127,-1479.4167 152.4354,-1521.8454 163.4503,-1533.3392 207,-1556.8036 282.9725,-1597.7372 386.9704,-1609.1489 431.1461,-1612.305"/>
</g>
<!-- 30&#45;&#45;31 -->
<g id="edge108" class="edge">
<title>30&#45;&#45;31</title>
<path fill="none" stroke="#000000" d="M105.6629,-1395.1464C116.6298,-1407.5263 130.5328,-1425.8082 139.5786,-1439.5939"/>
</g>
<!-- 38 -->
<g id="node33" class="node">
<title>38</title>
<ellipse fill="none" stroke="#000000" cx="163" cy="-1303.9494" rx="20.8887" ry="20.8887"/>
<text text-anchor="middle" x="163" y="-1299.7494" font-family="Times,serif" font-size="14.00" fill="#000000">38</text>
</g>
<!-- 30&#45;&#45;38 -->
<g id="edge110" class="edge">
<title>30&#45;&#45;38</title>
<path fill="none" stroke="#000000" d="M101.1304,-1363.3877C113.3086,-1348.921 132.3718,-1328.9616 146.2973,-1316.2544"/>
</g>
<!-- 31&#45;&#45;32 -->
<g id="edge111" class="edge">
<title>31&#45;&#45;32</title>
<path fill="none" stroke="#000000" d="M169.044,-1460.9841C198.9537,-1464.8163 254.2334,-1472.8152 301,-1479.4167 446.5134,-1499.9572 621.2495,-1523.9555 680.4742,-1532.7021"/>
</g>
<!-- 31&#45;&#45;30 -->
<g id="edge112" class="edge">
<title>31&#45;&#45;30</title>
<path fill="none" stroke="#000000" d="M132.3149,-1444.888C121.3802,-1432.5411 107.5341,-1414.3381 98.4928,-1400.5744"/>
</g>
<!-- 13&#45;&#45;14 -->
<g id="edge51" class="edge">
<title>13&#45;&#45;14</title>
<path fill="none" stroke="#000000" d="M171.2831,-237.1938C188.8106,-221.9125 217.9584,-199.0956 236.9911,-185.9065"/>
</g>
<!-- 13&#45;&#45;11 -->
<g id="edge53" class="edge">
<title>13&#45;&#45;11</title>
<path fill="none" stroke="#000000" d="M149.7125,-233.4596C138.5598,-190.1948 120.5854,-86.1027 116.5236,-41.5253"/>
</g>
<!-- 13&#45;&#45;12 -->
<g id="edge52" class="edge">
<title>13&#45;&#45;12</title>
<path fill="none" stroke="#000000" d="M162.9823,-272.7157C164.0039,-284.2583 164.0059,-298.7579 162.9882,-310.312"/>
</g>
<!-- 12&#45;&#45;15 -->
<g id="edge48" class="edge">
<title>12&#45;&#45;15</title>
<path fill="none" stroke="#000000" d="M175.0089,-340.6803C194.0416,-353.8694 223.1894,-376.6864 240.7169,-391.9676"/>
</g>
<!-- 12&#45;&#45;30 -->
<g id="edge49" class="edge">
<title>12&#45;&#45;30</title>
<path fill="none" stroke="#000000" d="M148.0904,-349.3127C135.4954,-378.0678 114,-434.5372 114,-485.0149 114,-559.7083 114,-559.7083 114,-559.7083 114,-661.9019 76,-684.2886 76,-786.4821 76,-1226.5625 76,-1226.5625 76,-1226.5625 76,-1274.857 82.8447,-1331.2846 86.9622,-1360.8602"/>
</g>
<!-- 12&#45;&#45;13 -->
<g id="edge47" class="edge">
<title>12&#45;&#45;13</title>
<path fill="none" stroke="#000000" d="M151.0118,-310.312C149.9941,-298.7579 149.9961,-284.2583 151.0177,-272.7157"/>
</g>
<!-- 12&#45;&#45;38 -->
<g id="edge50" class="edge">
<title>12&#45;&#45;38</title>
<path fill="none" stroke="#000000" d="M155.8903,-351.2628C154.4173,-381.0268 152,-437.1605 152,-485.0149 152,-1149.1756 152,-1149.1756 152,-1149.1756 152,-1197.1257 157.3181,-1253.222 160.5587,-1282.9543"/>
</g>
<!-- 38&#45;&#45;30 -->
<g id="edge132" class="edge">
<title>38&#45;&#45;30</title>
<path fill="none" stroke="#000000" d="M151.9247,-1321.8326C139.7898,-1336.2558 120.7776,-1356.1706 106.8435,-1368.9028"/>
</g>
<!-- 38&#45;&#45;37 -->
<g id="edge131" class="edge">
<title>38&#45;&#45;37</title>
<path fill="none" stroke="#000000" d="M176.8841,-1287.9148C193.5155,-1272.7739 220.8355,-1250.486 239.0406,-1237.3546"/>
</g>
<!-- 37&#45;&#45;36 -->
<g id="edge129" class="edge">
<title>37&#45;&#45;36</title>
<path fill="none" stroke="#000000" d="M265.4214,-1207.4332C274.4672,-1193.6475 288.3702,-1175.3656 299.3371,-1162.9857"/>
</g>
<!-- 37&#45;&#45;29 -->
<g id="edge130" class="edge">
<title>37&#45;&#45;29</title>
<path fill="none" stroke="#000000" d="M263.2956,-1246.5966C267.0112,-1276.0983 268,-1332.9655 268,-1381.3363 268,-1458.7232 268,-1458.7232 268,-1458.7232 268,-1544.1945 384.6228,-1590.3088 432.3289,-1606.6067"/>
</g>
<!-- 37&#45;&#45;38 -->
<g id="edge128" class="edge">
<title>37&#45;&#45;38</title>
<path fill="none" stroke="#000000" d="M243.4177,-1242.322C226.8034,-1257.4791 199.2309,-1279.9823 180.9153,-1293.1891"/>
</g>
<!-- 28&#45;&#45;29 -->
<g id="edge102" class="edge">
<title>28&#45;&#45;29</title>
<path fill="none" stroke="#000000" d="M861.4483,-1687.706C788.6464,-1675.5045 544.8397,-1631.6508 472.3542,-1617.7533"/>
</g>
<!-- 28&#45;&#45;27 -->
<g id="edge103" class="edge">
<title>28&#45;&#45;27</title>
<path fill="none" stroke="#000000" d="M901.8125,-1697.2258C939.5138,-1710.8518 1020.2706,-1742.9767 1057.1836,-1758.9362"/>
</g>
<!-- 28&#45;&#45;33 -->
<g id="edge101" class="edge">
<title>28&#45;&#45;33</title>
<path fill="none" stroke="#000000" d="M868.8204,-1674.5793C852.9441,-1646.8077 830,-1588.2611 830,-1536.1101 830,-1536.1101 830,-1536.1101 830,-485.0149 830,-436.6481 830,-379.7793 833.1285,-350.2762"/>
</g>
<!-- 27&#45;&#45;26 -->
<g id="edge100" class="edge">
<title>27&#45;&#45;26</title>
<path fill="none" stroke="#000000" d="M1092.0198,-1782.081C1103.3067,-1794.4608 1117.6821,-1812.7427 1127.0843,-1826.5284"/>
</g>
<!-- 27&#45;&#45;28 -->
<g id="edge99" class="edge">
<title>27&#45;&#45;28</title>
<path fill="none" stroke="#000000" d="M1056.2123,-1761.9379C1018.4545,-1748.2928 937.4492,-1716.0669 900.6193,-1700.1333"/>
</g>
<!-- 18&#45;&#45;17 -->
<g id="edge73" class="edge">
<title>18&#45;&#45;17</title>
<path fill="none" stroke="#000000" d="M939.0628,-427.9428C942.6399,-470.934 942.6457,-570.702 939.0802,-613.8772"/>
</g>
<!-- 18&#45;&#45;19 -->
<g id="edge72" class="edge">
<title>18&#45;&#45;19</title>
<path fill="none" stroke="#000000" d="M955.326,-412.1678C986.0366,-420.6233 1044.3459,-440.1391 1090,-464.3214 1092.572,-465.6838 1095.1883,-467.2247 1097.6977,-468.836"/>
</g>
<!-- 18&#45;&#45;28 -->
<g id="edge70" class="edge">
<title>18&#45;&#45;28</title>
<path fill="none" stroke="#000000" d="M931.0353,-427.9959C924.0832,-464.8625 909.9609,-545.1933 905,-613.7083 903.6716,-632.0545 900.018,-637.3886 905,-655.0952 910.0787,-673.1455 919.8812,-673.748 927,-691.0952 980.9652,-822.5994 1000,-860.3358 1000,-1002.4821 1000,-1536.1101 1000,-1536.1101 1000,-1536.1101 1000,-1601.6609 932.235,-1656.7448 899.4113,-1679.5811"/>
</g>
<!-- 18&#45;&#45;33 -->
<g id="edge71" class="edge">
<title>18&#45;&#45;33</title>
<path fill="none" stroke="#000000" d="M918.7149,-394.5003C901.0617,-380.2699 873.0494,-357.6887 855.365,-343.4331"/>
</g>
<!-- 33&#45;&#45;32 -->
<g id="edge116" class="edge">
<title>33&#45;&#45;32</title>
<path fill="none" stroke="#000000" d="M832.5464,-350.4246C819.0737,-379.1928 792,-434.151 792,-485.0149 792,-930.4821 792,-930.4821 792,-930.4821 792,-1029.1356 754,-1050.5221 754,-1149.1756 754,-1381.3363 754,-1381.3363 754,-1381.3363 754,-1433.5751 730.5223,-1492.0812 714.3584,-1519.8247"/>
</g>
<!-- 33&#45;&#45;28 -->
<g id="edge117" class="edge">
<title>33&#45;&#45;28</title>
<path fill="none" stroke="#000000" d="M844.8715,-350.2762C848,-379.7793 848,-436.6481 848,-485.0149 848,-1536.1101 848,-1536.1101 848,-1536.1101 848,-1585.7511 868.7888,-1641.187 878.4315,-1670.3598"/>
</g>
<!-- 24&#45;&#45;25 -->
<g id="edge91" class="edge">
<title>24&#45;&#45;25</title>
<path fill="none" stroke="#000000" d="M1097.9799,-392.707C1117.2108,-377.2467 1149.9629,-353.5194 1170.657,-340.1996"/>
</g>
<!-- 24&#45;&#45;32 -->
<g id="edge90" class="edge">
<title>24&#45;&#45;32</title>
<path fill="none" stroke="#000000" d="M1066.5856,-420.4186C1054.0864,-430.9619 1037.3239,-446.9605 1027,-464.3214 1020.0855,-475.9491 886,-916.9539 886,-930.4821 886,-1381.3363 886,-1381.3363 886,-1381.3363 886,-1466.5538 769.0984,-1514.0905 721.1504,-1530.004"/>
</g>
<!-- 24&#45;&#45;33 -->
<g id="edge89" class="edge">
<title>24&#45;&#45;33</title>
<path fill="none" stroke="#000000" d="M1063.0325,-401.2951C1017.1642,-386.7475 904.7053,-351.0801 858.9012,-336.5529"/>
</g>
</g>
</svg>
